<?xml version="1.0" encoding="UTF-8" standalone="no"?>
<!DOCTYPE svg PUBLIC "-//W3C//DTD SVG 1.1//EN"
 "http://www.w3.org/Graphics/SVG/1.1/DTD/svg11.dtd">
<!-- Generated by graphviz version 2.43.0 (0)
 -->
<!-- Title: dependency&#45;cruiser output Pages: 1 -->
<svg width="459pt" height="204pt"
 viewBox="0.00 0.00 459.00 204.00" xmlns="http://www.w3.org/2000/svg" xmlns:xlink="http://www.w3.org/1999/xlink">
<g id="graph0" class="graph" transform="scale(1 1) rotate(0) translate(4 200)">
<title>dependency&#45;cruiser output</title>
<polygon fill="white" stroke="transparent" points="-4,4 -4,-200 455,-200 455,4 -4,4"/>
<g id="clust1" class="cluster">
<title>cluster_packages</title>
<path fill="#ffffff" stroke="black" stroke-width="2" d="M20,-8C20,-8 431,-8 431,-8 437,-8 443,-14 443,-20 443,-20 443,-176 443,-176 443,-182 437,-188 431,-188 431,-188 20,-188 20,-188 14,-188 8,-182 8,-176 8,-176 8,-20 8,-20 8,-14 14,-8 20,-8"/>
<text text-anchor="middle" x="225.5" y="-176.8" font-family="Helvetica,sans-Serif" font-weight="bold" font-size="9.00">packages</text>
</g>
<g id="clust2" class="cluster">
<title>cluster_packages/react&#45;dom&#45;bindings</title>
<path fill="#ffffff" stroke="black" stroke-width="2" d="M307.5,-16C307.5,-16 401.5,-16 401.5,-16 407.5,-16 413.5,-22 413.5,-28 413.5,-28 413.5,-90 413.5,-90 413.5,-96 407.5,-102 401.5,-102 401.5,-102 307.5,-102 307.5,-102 301.5,-102 295.5,-96 295.5,-90 295.5,-90 295.5,-28 295.5,-28 295.5,-22 301.5,-16 307.5,-16"/>
<text text-anchor="middle" x="354.5" y="-90.8" font-family="Helvetica,sans-Serif" font-weight="bold" font-size="9.00">react&#45;dom&#45;bindings</text>
</g>
<g id="clust3" class="cluster">
<title>cluster_packages/react&#45;dom&#45;bindings/src</title>
<path fill="#ffffff" stroke="black" stroke-width="2" d="M331.5,-24C331.5,-24 377.5,-24 377.5,-24 383.5,-24 389.5,-30 389.5,-36 389.5,-36 389.5,-64 389.5,-64 389.5,-70 383.5,-76 377.5,-76 377.5,-76 331.5,-76 331.5,-76 325.5,-76 319.5,-70 319.5,-64 319.5,-64 319.5,-36 319.5,-36 319.5,-30 325.5,-24 331.5,-24"/>
<text text-anchor="middle" x="354.5" y="-64.8" font-family="Helvetica,sans-Serif" font-weight="bold" font-size="9.00">src</text>
</g>
<g id="clust4" class="cluster">
<title>cluster_packages/react&#45;dom</title>
<path fill="#ffffff" stroke="black" stroke-width="2" d="M28,-16C28,-16 254,-16 254,-16 260,-16 266,-22 266,-28 266,-28 266,-150 266,-150 266,-156 260,-162 254,-162 254,-162 28,-162 28,-162 22,-162 16,-156 16,-150 16,-150 16,-28 16,-28 16,-22 22,-16 28,-16"/>
<text text-anchor="middle" x="141" y="-150.8" font-family="Helvetica,sans-Serif" font-weight="bold" font-size="9.00">react&#45;dom</text>
</g>
<g id="clust5" class="cluster">
<title>cluster_packages/react&#45;dom/src</title>
<path fill="#ffffff" stroke="black" stroke-width="2" d="M98,-24C98,-24 246,-24 246,-24 252,-24 258,-30 258,-36 258,-36 258,-124 258,-124 258,-130 252,-136 246,-136 246,-136 98,-136 98,-136 92,-136 86,-130 86,-124 86,-124 86,-36 86,-36 86,-30 92,-24 98,-24"/>
<text text-anchor="middle" x="172" y="-124.8" font-family="Helvetica,sans-Serif" font-weight="bold" font-size="9.00">src</text>
</g>
<g id="clust6" class="cluster">
<title>cluster_packages/shared</title>
<path fill="#ffffff" stroke="black" stroke-width="2" d="M286,-110C286,-110 423,-110 423,-110 429,-110 435,-116 435,-122 435,-122 435,-150 435,-150 435,-156 429,-162 423,-162 423,-162 286,-162 286,-162 280,-162 274,-156 274,-150 274,-150 274,-122 274,-122 274,-116 280,-110 286,-110"/>
<text text-anchor="start" x="336.5" y="-150.8" font-family="Helvetica,sans-Serif" font-weight="bold" font-size="9.00">shared</text>
</g>
<!-- packages/react&#45;dom&#45;bindings/src/shared -->
<g id="node1" class="node">
<title>packages/react&#45;dom&#45;bindings/src/shared</title>
<g id="a_node1"><a xlink:href="packages/react-dom-bindings/src/shared" xlink:title="shared">
<polygon fill="#ffffcc" stroke="black" points="381.5,-50 329.5,-50 327.5,-48 327.5,-32 379.5,-32 381.5,-34 381.5,-50"/>
<polyline fill="none" stroke="black" points="379.5,-48 327.5,-48 "/>
<polyline fill="none" stroke="black" points="379.5,-48 379.5,-32 "/>
<polyline fill="none" stroke="black" points="379.5,-48 381.5,-50 "/>
<text text-anchor="start" x="339" y="-38.8" font-family="Helvetica,sans-Serif" font-size="9.00">shared</text>
</a>
</g>
</g>
<!-- packages/shared/ReactDOMSharedInternals.js -->
<g id="node2" class="node">
<title>packages/shared/ReactDOMSharedInternals.js</title>
<g id="a_node2"><a xlink:href="packages/shared/ReactDOMSharedInternals.js" xlink:title="ReactDOMSharedInternals.js">
<path fill="#ffffcc" stroke="black" d="M421,-136C421,-136 288,-136 288,-136 285,-136 282,-133 282,-130 282,-130 282,-124 282,-124 282,-121 285,-118 288,-118 288,-118 421,-118 421,-118 424,-118 427,-121 427,-124 427,-124 427,-130 427,-130 427,-133 424,-136 421,-136"/>
<text text-anchor="start" x="290" y="-124.8" font-family="Helvetica,sans-Serif" font-size="9.00">ReactDOMSharedInternals.js</text>
</a>
</g>
</g>
<!-- packages/react&#45;dom&#45;bindings/src/shared&#45;&gt;packages/shared/ReactDOMSharedInternals.js -->
<g id="edge1" class="edge">
<title>packages/react&#45;dom&#45;bindings/src/shared&#45;&gt;packages/shared/ReactDOMSharedInternals.js</title>
<g id="a_edge1"><a xlink:title="no&#45;circular">
<path fill="none" stroke="orange" stroke-width="2" d="M354.5,-50.07C354.5,-68.02 354.5,-85.97 354.5,-103.92"/>
<polygon fill="orange" stroke="orange" stroke-width="2" points="352.4,-111.98 354.5,-117.98 356.6,-111.98 352.4,-111.98"/>
<polyline fill="none" stroke="orange" stroke-width="2" points="354.5,-111.98 354.5,-108.98 "/>
<ellipse fill="none" stroke="orange" stroke-width="2" cx="354.5" cy="-106.58" rx="2.4" ry="2.4"/>
</a>
</g>
<text text-anchor="middle" x="330" y="-76.95" font-family="Helvetica,sans-Serif" font-size="9.00" fill="orange">no&#45;circular</text>
</g>
<!-- packages/react&#45;dom/index.js -->
<g id="node3" class="node">
<title>packages/react&#45;dom/index.js</title>
<g id="a_node3"><a xlink:href="packages/react-dom/index.js" xlink:title="index.js">
<path fill="#ffffcc" stroke="black" d="M72,-110C72,-110 30,-110 30,-110 27,-110 24,-107 24,-104 24,-104 24,-98 24,-98 24,-95 27,-92 30,-92 30,-92 72,-92 72,-92 75,-92 78,-95 78,-98 78,-98 78,-104 78,-104 78,-107 75,-110 72,-110"/>
<text text-anchor="start" x="33.5" y="-98.8" font-family="Helvetica,sans-Serif" font-size="9.00">index.js</text>
</a>
</g>
</g>
<!-- packages/shared/ReactDOMSharedInternals.js&#45;&gt;packages/react&#45;dom/index.js -->
<g id="edge6" class="edge">
<title>packages/shared/ReactDOMSharedInternals.js&#45;&gt;packages/react&#45;dom/index.js</title>
<g id="a_edge6"><a xlink:title="shared&#45;is&#45;foundation">
<path fill="none" stroke="red" stroke-width="2" d="M325.8,-136.05C275.5,-150.85 166.85,-175.15 86,-139 77.72,-135.3 70.61,-128.46 65.08,-121.6"/>
<polygon fill="red" stroke="red" stroke-width="2" points="62.26,-113.94 57.09,-110.24 58.82,-116.36 62.26,-113.94"/>
<polyline fill="none" stroke="red" stroke-width="2" points="60.54,-115.15 62.26,-117.6 "/>
<ellipse fill="none" stroke="red" stroke-width="2" cx="63.64" cy="-119.57" rx="2.4" ry="2.4"/>
</a>
</g>
<text text-anchor="middle" x="238.5" y="-150.63" font-family="Helvetica,sans-Serif" font-size="9.00" fill="red">shared&#45;is&#45;foundation</text>
</g>
<!-- packages/react&#45;dom/src/ReactDOMSharedInternals.js -->
<g id="node4" class="node">
<title>packages/react&#45;dom/src/ReactDOMSharedInternals.js</title>
<g id="a_node4"><a xlink:href="packages/react-dom/src/ReactDOMSharedInternals.js" xlink:title="ReactDOMSharedInternals.js">
<path fill="#ffffcc" stroke="black" d="M238.5,-110C238.5,-110 105.5,-110 105.5,-110 102.5,-110 99.5,-107 99.5,-104 99.5,-104 99.5,-98 99.5,-98 99.5,-95 102.5,-92 105.5,-92 105.5,-92 238.5,-92 238.5,-92 241.5,-92 244.5,-95 244.5,-98 244.5,-98 244.5,-104 244.5,-104 244.5,-107 241.5,-110 238.5,-110"/>
<text text-anchor="start" x="107.5" y="-98.8" font-family="Helvetica,sans-Serif" font-size="9.00">ReactDOMSharedInternals.js</text>
</a>
</g>
</g>
<!-- packages/react&#45;dom/index.js&#45;&gt;packages/react&#45;dom/src/ReactDOMSharedInternals.js -->
<g id="edge2" class="edge">
<title>packages/react&#45;dom/index.js&#45;&gt;packages/react&#45;dom/src/ReactDOMSharedInternals.js</title>
<path fill="none" stroke="#000000" stroke-width="2" stroke-opacity="0.200000" d="M78.12,-101C82.74,-101 87.76,-101 92.99,-101"/>
<polygon fill="#000000" fill-opacity="0.200000" stroke="#000000" stroke-width="2" stroke-opacity="0.200000" points="99.22,-103.1 93.22,-101 99.22,-98.9 99.22,-103.1"/>
</g>
<!-- packages/react&#45;dom/src/shared -->
<g id="node5" class="node">
<title>packages/react&#45;dom/src/shared</title>
<g id="a_node5"><a xlink:href="packages/react-dom/src/shared" xlink:title="shared">
<polygon fill="#ffffcc" stroke="black" points="199,-80 147,-80 145,-78 145,-62 197,-62 199,-64 199,-80"/>
<polyline fill="none" stroke="black" points="197,-78 145,-78 "/>
<polyline fill="none" stroke="black" points="197,-78 197,-62 "/>
<polyline fill="none" stroke="black" points="197,-78 199,-80 "/>
<text text-anchor="start" x="156.5" y="-68.8" font-family="Helvetica,sans-Serif" font-size="9.00">shared</text>
</a>
</g>
</g>
<!-- packages/react&#45;dom/index.js&#45;&gt;packages/react&#45;dom/src/shared -->
<g id="edge3" class="edge">
<title>packages/react&#45;dom/index.js&#45;&gt;packages/react&#45;dom/src/shared</title>
<g id="a_edge3"><a xlink:title="no&#45;circular">
<path fill="none" stroke="orange" stroke-width="2" d="M70.4,-91.92C75.37,-89.73 80.81,-87.58 86,-86 100.52,-81.59 116.85,-78.32 131.28,-75.98"/>
<polygon fill="orange" stroke="orange" stroke-width="2" points="139.33,-76.9 144.96,-73.94 138.71,-72.75 139.33,-76.9"/>
<polyline fill="none" stroke="orange" stroke-width="2" points="139.02,-74.83 136.05,-75.27 "/>
<ellipse fill="none" stroke="orange" stroke-width="2" cx="133.68" cy="-75.62" rx="2.4" ry="2.4"/>
</a>
</g>
<text text-anchor="middle" x="82.73" y="-73.33" font-family="Helvetica,sans-Serif" font-size="9.00" fill="orange">no&#45;circular</text>
</g>
<!-- packages/react&#45;dom/src/shared&#45;&gt;packages/react&#45;dom&#45;bindings/src/shared -->
<g id="edge4" class="edge">
<title>packages/react&#45;dom/src/shared&#45;&gt;packages/react&#45;dom&#45;bindings/src/shared</title>
<g id="a_edge4"><a xlink:title="no&#45;circular">
<path fill="none" stroke="orange" stroke-width="2" d="M199.07,-66.87C217.72,-63.89 243.41,-59.76 266,-56 281.51,-53.42 298.55,-50.51 313.44,-47.95"/>
<polygon fill="orange" stroke="orange" stroke-width="2" points="321.92,-48.62 327.48,-45.53 321.21,-44.48 321.92,-48.62"/>
<polyline fill="none" stroke="orange" stroke-width="2" points="321.56,-46.55 318.61,-47.06 "/>
<ellipse fill="none" stroke="orange" stroke-width="2" cx="316.24" cy="-47.47" rx="2.4" ry="2.4"/>
</a>
</g>
<text text-anchor="middle" x="290.55" y="-48.79" font-family="Helvetica,sans-Serif" font-size="9.00" fill="orange">no&#45;circular</text>
</g>
<!-- packages/react&#45;dom/src/shared&#45;&gt;packages/shared/ReactDOMSharedInternals.js -->
<g id="edge5" class="edge">
<title>packages/react&#45;dom/src/shared&#45;&gt;packages/shared/ReactDOMSharedInternals.js</title>
<g id="a_edge5"><a xlink:title="no&#45;circular">
<path fill="none" stroke="orange" stroke-width="2" d="M199.1,-73.25C217.99,-75.35 243.96,-79.21 266,-86 286.62,-92.36 308.61,-102.68 325.38,-111.37"/>
<polygon fill="orange" stroke="orange" stroke-width="2" points="331.31,-116.92 337.59,-117.89 333.29,-113.21 331.31,-116.92"/>
<polyline fill="none" stroke="orange" stroke-width="2" points="332.3,-115.06 329.65,-113.65 "/>
<ellipse fill="none" stroke="orange" stroke-width="2" cx="327.54" cy="-112.52" rx="2.4" ry="2.4"/>
</a>
</g>
<text text-anchor="middle" x="246.35" y="-80.36" font-family="Helvetica,sans-Serif" font-size="9.00" fill="orange">no&#45;circular</text>
</g>
<!-- packages/react&#45;dom/src/ReactDOMSharedInternalsFB.js -->
<g id="node6" class="node">
<title>packages/react&#45;dom/src/ReactDOMSharedInternalsFB.js</title>
<g id="a_node6"><a xlink:href="packages/react-dom/src/ReactDOMSharedInternalsFB.js" xlink:title="no&#45;orphans">
<path fill="#ccffcc" stroke="blue" d="M244,-50C244,-50 100,-50 100,-50 97,-50 94,-47 94,-44 94,-44 94,-38 94,-38 94,-35 97,-32 100,-32 100,-32 244,-32 244,-32 247,-32 250,-35 250,-38 250,-38 250,-44 250,-44 250,-47 247,-50 244,-50"/>
<text text-anchor="start" x="102" y="-38.8" font-family="Helvetica,sans-Serif" font-size="9.00" fill="blue">ReactDOMSharedInternalsFB.js</text>
</a>
</g>
</g>
</g>
</svg>
